Fury (1936) B & W

Director: Fritz Lang

Fury is a 1936 American drama film which tells the story of an innocent man who narrowly escapes being lynched and the revenge he seeks. Directed by Fritz Lang, the film was released by Metro-Goldwyn-Mayer and stars Spencer Tracy and Sylvia Sidney and features Walter Abel, Bruce Cabot, Edward Ellis and Walter Brennan. Loosely based on the events surrounding the Brooke Hart murder, the movie was adapted by Bartlett Cormack and Lang from the story Mob Rule by Norman Krasna.

Fury was Lang's first American film, and is considered by critics to have been compromised by the studio, which forced Lang to make the protagonist innocent of the crime he's nearly lynched for, and to tack on a reconciliation between him and his girlfriend.

In 1995, this film was selected for preservation in the United States National Film Registry by the Library of Congress as being deemed "culturally, historically, or aesthetically significant."

Media Info:
General
Complete name                    : J:\Seeding\Fury (1936)[DVDRip][big_dad_e™]\Fury (1936)[DVDRip][big_dad_e™].AVI
Format                           : AVI
Format/Info                      : Audio Video Interleave
File size                        : 1.18 GiB
Duration                         : 1h 32mn
Overall bit rate                 : 1 833 Kbps

Video
ID                               : 0
Format                           : MPEG-4 Visual
Format profile                   : Simple@L3
Format settings, BVOP            : No
Format settings, QPel            : No
Format settings, GMC             : No warppoints
Format settings, Matrix          : Default (H.263)
Codec ID                         : XVID
Codec ID/Hint                    : XviD
Duration                         : 1h 32mn
Bit rate                         : 1 500 Kbps
Width                            : 714 pixels
Height                           : 480 pixels
Display aspect ratio             : 4:3
Frame rate                       : 23.976 fps
Color space                      : YUV
Chroma subsampling               : 4:2:0
Bit depth                        : 8 bits
Scan type                        : Progressive
Bits/(Pixel*Frame)               : 0.183
Stream size                      : 992 MiB (82%)
Writing library                  : XviD 1.1.2 (UTC 2006-11-01)

Audio
ID                               : 1
Format                           : MPEG Audio
Format version                   : Version 1
Format profile                   : Layer 3
Mode                             : Joint stereo
Mode extension                   : MS Stereo
Codec ID                         : 55
Codec ID/Hint                    : MP3
Duration                         : 1h 32mn
Bit rate mode                    : Constant
Bit rate                         : 320 Kbps
Channel(s)                       : 2 channels
Sampling rate                    : 48.0 KHz
Stream size                      : 212 MiB (17%)
Alignment                        : Split accross interleaves
Interleave, duration             : 24 ms (0.58 video frame)
Interleave, preload duration     : 767 ms
Writing library                  : LAME3.98

File Scan:
Malwarebytes' Anti-Malware 1.50.1.1100
www.malwarebytes.org

Database version: 5717
2/8/2011 7:42:54 PM
mbam-log-2011-02-08 (19-42-54).txt

Scan type: Quick scan
Objects scanned: 5
Time elapsed: 9 second(s)

Memory Processes Infected: 0
Memory Modules Infected: 0
Registry Keys Infected: 0
Registry Values Infected: 0
Registry Data Items Infected: 0
Folders Infected: 0
Files Infected: 0

Memory Processes Infected:
(No malicious items detected)

Memory Modules Infected:
(No malicious items detected)

Registry Keys Infected:
(No malicious items detected)

Registry Values Infected:
(No malicious items detected)

Registry Data Items Infected:
(No malicious items detected)

Folders Infected:
(No malicious items detected)

Files Infected:
(No malicious items detected)

When using TPB please read these important notes:
  
01- Anti-malware apps may warn about keygens, patches, cracks, etc., because of 
    their capabilities, (generating codes, etc.). Sometimes they're added to 
    the virus/spyware database and will be detected as malware. If you don't trust
    the keygens, patches, cracks, etc., don't use them. 
    
02- Before running .exe-files, keygens, patches, cracks, etc., always check first 
    if they can be unpacked. Often some third party added a virus to the 
    original file, repacked it and uploaded it again.

03- Letting anti-malware apps send scan results to their companies can cause
    keygens, patches, cracks, etc., to be added to their virus-database.

04- Firewalls which are set to automatically determine connections will allow 
    apps & malware!. Avoid this by manually configuring your firewall.

05- Usually (new) torrents with many downloads and seeders in a brief period is
    suspicious! Torrents with the Skull & Crossbones icon are trusted.

06- Some people use multiple accounts and post fake comments 
    and/or files trying to spread confusion. They seldom seriously
    comment or have any torrents, or a just a few to look passable.

07- Clicking on unknown links can cause malware to be installed on your machine.
  
08- In general often there are more fake and negative comments than reliable and
    positive comments.

09- In some countries uploading/downloading copyright protected material is 
    forbidden, but showing some appreciation to reliable up-loaders is not.

10- Posting fake and negative comments or fake/infected uploads on TPB can result
    in getting banned from TPB!

Requests?  Find me on SuprBay. http://forum.suprbay.org
 

For reporting bad or suspicious torrents:  
http://forum.suprbay.org/forumdisplay.php?fid=29

For more of my torrents: 
https://thepiratebay.org/user/big_dad_e/  (Secured)

All torrents scanned with:
Norton Anti-virus
Malwarebytes' Anti-malware
 
http://www.pirate-party.us/

ALWAYS SEED & THANKS SEEDERS!